<svg width="8" height="8" viewBox="0 0 8 8" fill="none" xmlns="http://www.w3.org/2000/svg">
<path d="M7.72698 1.24517C7.99547 0.976684 7.99547 0.541383 7.72698 0.272897C7.4585 0.00441182 7.0232 0.00441182 6.75471 0.272897L3.99994 3.02766L1.24518 0.272898C0.976693 0.00441243 0.541391 0.00441214 0.272906 0.272898C0.00442037 0.541383 0.00442056 0.976684 0.272906 1.24517L3.02767 3.99994L0.272897 6.75471C0.004412 7.02319 0.00441172 7.4585 0.272897 7.72698C0.541383 7.99547 0.976684 7.99547 1.24517 7.72698L3.99994 4.97221L6.75472 7.72698C7.0232 7.99547 7.4585 7.99547 7.72699 7.72698C7.99548 7.4585 7.99548 7.0232 7.72699 6.75471L4.97222 3.99994L7.72698 1.24517Z" fill="black"/>
</svg>
